<?xml version="1.0" encoding="utf-8"?>
<!-- Generator: Adobe Illustrator 17.1.0, SVG Export Plug-In . SVG Version: 6.00 Build 0)  -->
<!DOCTYPE svg PUBLIC "-//W3C//DTD SVG 1.1//EN" "http://www.w3.org/Graphics/SVG/1.1/DTD/svg11.dtd">
<svg version="1.1" id="Layer_1" xmlns="http://www.w3.org/2000/svg" xmlns:xlink="http://www.w3.org/1999/xlink" x="0px" y="0px"
	 viewBox="0 0 780 403" enable-background="new 0 0 780 403" xml:space="preserve">
<g>
	<defs>
		<rect id="SVGID_1_" x="0" y="0" width="780" height="403"/>
	</defs>
	<clipPath id="SVGID_2_">
		<use xlink:href="#SVGID_1_"  overflow="visible"/>
	</clipPath>
	<path clip-path="url(#SVGID_2_)" fill="#F37920" d="M546.2,287.9c0.7,0,1.3-0.6,1.3-1.3s-0.6-1.3-1.3-1.3c-0.7,0-1.3,0.6-1.3,1.3
		S545.5,287.9,546.2,287.9 M539.9,275.1c0.6,0,1.1-0.5,1.1-1.1s-0.5-1.1-1.1-1.1c-0.6,0-1.1,0.5-1.1,1.1S539.3,275.1,539.9,275.1
		 M536.1,275.1c0.6,0,1.1-0.5,1.1-1.1s-0.5-1.1-1.1-1.1c-0.6,0-1.1,0.5-1.1,1.1S535.6,275.1,536.1,275.1 M537.1,286.6
		c-1.5,0-2-0.7-2-1.8c0-1.5,1.5-2.1,3.6-2.1h1.4v1.3C540.2,285.7,538.8,286.6,537.1,286.6 M536.9,287.9c1.5,0,2.5-0.5,3.3-1.5v1.3
		h1.7v-6.9c0-2.9-1.8-3.7-3.8-3.7c-2,0-3.9,0.9-4.1,3.3h1.7c0.2-1.3,1-1.9,2.4-1.9c1.6,0,2.2,0.7,2.2,2.4v0.8h-1.5
		c-2.7,0-5.2,0.8-5.2,3.2C533.4,287,535,287.9,536.9,287.9 M527.9,287.9c2.5,0,3.8-1.3,3.8-3.2c0-2.2-1.5-2.7-3.7-3.1
		c-1.9-0.3-2.4-0.7-2.4-1.7c0-0.9,0.8-1.5,2-1.5c1.3,0,2,0.5,2.2,1.6h1.6c-0.3-2.3-1.9-3-3.8-3c-1.6,0-3.5,1-3.5,2.9
		c0,1.8,0.9,2.6,3.6,3.1c1.6,0.3,2.4,0.7,2.4,1.8c0,1.1-0.7,1.7-2.3,1.7c-1.7,0-2.3-0.8-2.5-2h-1.6
		C523.9,286.7,525.4,287.9,527.9,287.9 M518.3,287.9c2.5,0,3.8-1.3,3.8-3.2c0-2.2-1.5-2.7-3.7-3.1c-1.9-0.3-2.4-0.7-2.4-1.7
		c0-0.9,0.8-1.5,2-1.5c1.3,0,2,0.5,2.2,1.6h1.6c-0.3-2.3-1.9-3-3.8-3c-1.6,0-3.5,1-3.5,2.9c0,1.8,0.9,2.6,3.6,3.1
		c1.6,0.3,2.4,0.7,2.4,1.8c0,1.1-0.7,1.7-2.3,1.7c-1.7,0-2.3-0.8-2.5-2h-1.6C514.3,286.7,515.8,287.9,518.3,287.9 M509.2,275.1
		c0.6,0,1.1-0.5,1.1-1.1s-0.5-1.1-1.1-1.1s-1.1,0.5-1.1,1.1S508.7,275.1,509.2,275.1 M505.5,275.1c0.6,0,1.1-0.5,1.1-1.1
		s-0.5-1.1-1.1-1.1c-0.6,0-1.1,0.5-1.1,1.1S504.9,275.1,505.5,275.1 M507.3,287.9c3,0,5.2-2.2,5.2-5.3v-0.2c0-3.1-2.2-5.3-5.1-5.3
		s-5.1,2.2-5.1,5.3v0.2C502.2,285.7,504.4,287.9,507.3,287.9 M507.4,286.6c-2.1,0-3.4-1.6-3.4-3.9v-0.2c0-2.4,1.3-4,3.4-4
		c2.1,0,3.4,1.6,3.4,4v0.1C510.8,285,509.5,286.6,507.4,286.6 M499.1,287.9c0.7,0,1.1-0.1,1.4-0.2v-1.4c-0.4,0.1-0.8,0.2-1.3,0.2
		c-0.8,0-1.3-0.5-1.3-1.5v-6.3h2.4v-1.4h-2.4v-2.4h-1.7v2.4h-1.5v1.4h1.5v6.4C496.3,286.8,497.2,287.9,499.1,287.9 M489.5,287.9
		c2.5,0,3.8-1.3,3.8-3.2c0-2.2-1.5-2.7-3.7-3.1c-1.9-0.3-2.4-0.7-2.4-1.7c0-0.9,0.8-1.5,2-1.5c1.3,0,2,0.5,2.2,1.6h1.6
		c-0.3-2.3-1.9-3-3.8-3c-1.6,0-3.5,1-3.5,2.9c0,1.8,0.9,2.6,3.6,3.1c1.6,0.3,2.4,0.7,2.4,1.8c0,1.1-0.7,1.7-2.3,1.7
		c-1.7,0-2.3-0.8-2.5-2h-1.6C485.5,286.7,487,287.9,489.5,287.9 M482.1,275.1c0.6,0,1.1-0.5,1.1-1.1s-0.5-1.1-1.1-1.1
		s-1.1,0.5-1.1,1.1S481.5,275.1,482.1,275.1 M481.3,287.8h1.7v-10.5h-1.7V287.8z M473.7,287.8h1.7V282c0-2.6,1.3-3.2,3.4-3.3v-1.6
		c-1.9,0.1-2.8,0.9-3.4,2.1v-1.9h-1.7V287.8z M468.5,275.1c0.6,0,1.1-0.5,1.1-1.1s-0.5-1.1-1.1-1.1c-0.6,0-1.1,0.5-1.1,1.1
		S467.9,275.1,468.5,275.1 M464.8,275.1c0.6,0,1.1-0.5,1.1-1.1s-0.5-1.1-1.1-1.1c-0.6,0-1.1,0.5-1.1,1.1S464.2,275.1,464.8,275.1
		 M465.7,286.6c-1.5,0-2-0.7-2-1.8c0-1.5,1.5-2.1,3.6-2.1h1.4v1.3C468.8,285.7,467.4,286.6,465.7,286.6 M465.5,287.9
		c1.5,0,2.5-0.5,3.3-1.5v1.3h1.7v-6.9c0-2.9-1.8-3.7-3.8-3.7c-2,0-3.9,0.9-4.1,3.3h1.7c0.2-1.3,1-1.9,2.4-1.9c1.6,0,2.2,0.7,2.2,2.4
		v0.8h-1.5c-2.7,0-5.2,0.8-5.2,3.2C462,287,463.6,287.9,465.5,287.9 M455.4,286.6c-2,0-3.4-1.3-3.4-3.9v-0.2c0-2.7,1.5-4,3.4-4
		c1.8,0,3.2,1.3,3.2,4v0.2C458.6,285.2,457.5,286.6,455.4,286.6 M450.4,291.4h1.7V286c0.6,1,1.8,1.9,3.5,1.9c2.9,0,4.8-2.2,4.8-5.4
		v-0.2c0-3.3-2-5.3-4.8-5.3c-1.5,0-2.9,0.9-3.5,1.9v-1.8h-1.7V291.4z M432.2,287.8h1.7v-6.4c0-1.9,1.4-2.8,2.8-2.8
		c1.4,0,2.2,0.8,2.2,2.6v6.6h1.7v-6.4c0-1.9,1.4-2.8,2.8-2.8c1.4,0,2.2,0.8,2.2,2.6v6.6h1.7v-6.5c0-3-1.6-4.2-3.5-4.2
		c-1.3,0-2.9,0.6-3.6,2c-0.5-1.4-1.7-2-3.1-2c-1.5,0-2.6,0.8-3.1,1.8v-1.6h-1.7V287.8z M422.5,291.4h1.7l5.8-14.1h-1.7l-2.9,7.5
		l-3.2-7.5h-1.8l4.1,9.4L422.5,291.4z M408.3,286.6c-1.5,0-2-0.7-2-1.8c0-1.5,1.5-2.1,3.6-2.1h1.4v1.3
		C411.4,285.7,410,286.6,408.3,286.6 M408.1,287.9c1.5,0,2.5-0.5,3.3-1.5v1.3h1.7v-6.9c0-2.9-1.8-3.7-3.8-3.7c-2,0-3.9,0.9-4.1,3.3
		h1.7c0.2-1.3,1-1.9,2.4-1.9c1.6,0,2.2,0.7,2.2,2.4v0.8h-1.5c-2.7,0-5.2,0.8-5.2,3.2C404.6,287,406.2,287.9,408.1,287.9
		 M399.1,287.9c2.5,0,3.8-1.3,3.8-3.2c0-2.2-1.5-2.7-3.7-3.1c-1.9-0.3-2.4-0.7-2.4-1.7c0-0.9,0.8-1.5,2-1.5c1.3,0,2,0.5,2.2,1.6h1.6
		c-0.3-2.3-1.9-3-3.8-3c-1.6,0-3.5,1-3.5,2.9c0,1.8,0.9,2.6,3.6,3.1c1.6,0.3,2.4,0.7,2.4,1.8c0,1.1-0.7,1.7-2.3,1.7
		c-1.7,0-2.3-0.8-2.5-2H395C395.1,286.7,396.6,287.9,399.1,287.9 M389.5,287.9c2.5,0,3.8-1.3,3.8-3.2c0-2.2-1.5-2.7-3.7-3.1
		c-1.9-0.3-2.4-0.7-2.4-1.7c0-0.9,0.8-1.5,2-1.5c1.3,0,2,0.5,2.2,1.6h1.6c-0.3-2.3-1.9-3-3.8-3c-1.6,0-3.5,1-3.5,2.9
		c0,1.8,0.9,2.6,3.6,3.1c1.6,0.3,2.4,0.7,2.4,1.8c0,1.1-0.7,1.7-2.3,1.7c-1.7,0-2.3-0.8-2.5-2h-1.6
		C385.5,286.7,387,287.9,389.5,287.9 M378.3,286.6c-1.5,0-2-0.7-2-1.8c0-1.5,1.5-2.1,3.6-2.1h1.4v1.3
		C381.4,285.7,380,286.6,378.3,286.6 M378.1,287.9c1.5,0,2.5-0.5,3.3-1.5v1.3h1.7v-6.9c0-2.9-1.8-3.7-3.8-3.7c-2,0-3.9,0.9-4.1,3.3
		h1.7c0.2-1.3,1-1.9,2.4-1.9c1.6,0,2.2,0.7,2.2,2.4v0.8h-1.5c-2.7,0-5.2,0.8-5.2,3.2C374.6,287,376.2,287.9,378.1,287.9
		 M367.5,287.8h2.1l3.8-10.5h-1.7l-3.1,8.8l-3.1-8.8h-1.8L367.5,287.8z M356.6,287.9c1.7,0,2.8-0.9,3.3-1.8v1.7h1.7v-10.5h-1.7v6.3
		c0,1.9-1.4,2.9-2.9,2.9c-1.6,0-2.4-0.8-2.4-2.7v-6.5h-1.7v6.6C352.9,286.8,354.5,287.9,356.6,287.9 M349.1,287.9
		c0.7,0,1.1-0.1,1.4-0.2v-1.4c-0.4,0.1-0.8,0.2-1.3,0.2c-0.8,0-1.3-0.5-1.3-1.5v-6.3h2.4v-1.4h-2.4v-2.4h-1.7v2.4h-1.5v1.4h1.5v6.4
		C346.3,286.8,347.2,287.9,349.1,287.9 M342,287.9c0.7,0,1.1-0.1,1.4-0.2v-1.4c-0.4,0.1-0.8,0.2-1.3,0.2c-0.8,0-1.3-0.5-1.3-1.5
		v-6.3h2.4v-1.4h-2.4v-2.4h-1.7v2.4h-1.5v1.4h1.5v6.4C339.2,286.8,340.1,287.9,342,287.9 M330.5,287.9c1.7,0,2.8-0.9,3.3-1.8v1.7
		h1.7v-10.5h-1.7v6.3c0,1.9-1.4,2.9-2.9,2.9c-1.6,0-2.4-0.8-2.4-2.7v-6.5h-1.7v6.6C326.8,286.8,328.4,287.9,330.5,287.9
		 M318.6,287.9c1.7,0,2.8-0.9,3.3-1.8v1.7h1.7v-10.5h-1.7v6.3c0,1.9-1.4,2.9-2.9,2.9c-1.6,0-2.4-0.8-2.4-2.7v-6.5H315v6.6
		C315,286.8,316.5,287.9,318.6,287.9 M296.9,287.8h1.7v-6.4c0-1.9,1.4-2.8,2.8-2.8c1.4,0,2.2,0.8,2.2,2.6v6.6h1.7v-6.4
		c0-1.9,1.4-2.8,2.8-2.8c1.4,0,2.2,0.8,2.2,2.6v6.6h1.7v-6.5c0-3-1.6-4.2-3.5-4.2c-1.3,0-2.9,0.6-3.6,2c-0.5-1.4-1.7-2-3.1-2
		c-1.5,0-2.6,0.8-3.1,1.8v-1.6h-1.7V287.8z M287.3,275.1c0.6,0,1.1-0.5,1.1-1.1s-0.5-1.1-1.1-1.1s-1.1,0.5-1.1,1.1
		S286.7,275.1,287.3,275.1 M286.5,287.8h1.7v-10.5h-1.7V287.8z M282.5,287.9c0.7,0,1.1-0.1,1.4-0.2v-1.4c-0.4,0.1-0.8,0.2-1.3,0.2
		c-0.8,0-1.3-0.5-1.3-1.5v-6.3h2.4v-1.4h-2.4v-2.4h-1.7v2.4h-1.5v1.4h1.5v6.4C279.7,286.8,280.6,287.9,282.5,287.9 M271.3,286.6
		c-1.5,0-2-0.7-2-1.8c0-1.5,1.5-2.1,3.6-2.1h1.4v1.3C274.4,285.7,273.1,286.6,271.3,286.6 M271.2,287.9c1.5,0,2.5-0.5,3.3-1.5v1.3
		h1.7v-6.9c0-2.9-1.8-3.7-3.8-3.7c-2,0-3.9,0.9-4.1,3.3h1.7c0.2-1.3,1-1.9,2.4-1.9c1.6,0,2.2,0.7,2.2,2.4v0.8h-1.5
		c-2.7,0-5.2,0.8-5.2,3.2C267.7,287,269.2,287.9,271.2,287.9 M263.5,287.8h1.7v-15.5h-1.7V287.8z M255.4,286.6c-1.5,0-2-0.7-2-1.8
		c0-1.5,1.5-2.1,3.6-2.1h1.4v1.3C258.5,285.7,257.2,286.6,255.4,286.6 M255.3,287.9c1.5,0,2.5-0.5,3.3-1.5v1.3h1.7v-6.9
		c0-2.9-1.8-3.7-3.8-3.7c-2,0-3.9,0.9-4.1,3.3h1.7c0.2-1.3,1-1.9,2.4-1.9c1.6,0,2.2,0.7,2.2,2.4v0.8H257c-2.7,0-5.2,0.8-5.2,3.2
		C251.8,287,253.3,287.9,255.3,287.9"/>
	<path clip-path="url(#SVGID_2_)" fill="#F37920" d="M680.7,262.6c-1.5,0-2-0.7-2-1.8c0-1.5,1.5-2.1,3.6-2.1h1.4v1.3
		C683.8,261.7,682.5,262.6,680.7,262.6 M680.5,263.9c1.5,0,2.5-0.5,3.3-1.5v1.3h1.7v-6.9c0-2.9-1.8-3.7-3.8-3.7
		c-2,0-3.9,0.9-4.1,3.3h1.7c0.2-1.3,1-1.9,2.4-1.9c1.6,0,2.2,0.7,2.2,2.4v0.8h-1.5c-2.7,0-5.2,0.8-5.2,3.2
		C677.1,263,678.6,263.9,680.5,263.9 M673.9,263.9c0.7,0,1.1-0.1,1.4-0.2v-1.4c-0.4,0.1-0.8,0.2-1.3,0.2c-0.8,0-1.3-0.5-1.3-1.5
		v-6.3h2.4v-1.4h-2.4v-2.4h-1.7v2.4h-1.5v1.4h1.5v6.4C671.1,262.8,672,263.9,673.9,263.9 M664.4,263.9c2.5,0,3.8-1.3,3.8-3.2
		c0-2.2-1.5-2.7-3.7-3.1c-1.9-0.3-2.4-0.7-2.4-1.7c0-0.9,0.8-1.5,2-1.5c1.3,0,2,0.5,2.2,1.6h1.6c-0.3-2.3-1.9-3-3.8-3
		c-1.6,0-3.5,1-3.5,2.9c0,1.8,0.9,2.6,3.6,3.1c1.6,0.3,2.4,0.7,2.4,1.8c0,1.1-0.7,1.7-2.3,1.7c-1.7,0-2.3-0.8-2.5-2h-1.6
		C660.4,262.7,661.9,263.9,664.4,263.9 M650.7,257.5c0.3-1.9,1.4-3,3.1-3c1.7,0,2.8,0.9,3,3H650.7z M653.9,263.9
		c2.4,0,4.1-1.1,4.5-3.2h-1.7c-0.2,1.2-1.2,1.8-2.8,1.8c-2.1,0-3.3-1.3-3.4-3.7h7.9v-0.5c0-3.7-2.3-5.2-4.7-5.2
		c-2.9,0-4.9,2.2-4.9,5.4v0.2C648.9,261.9,651,263.9,653.9,263.9 M643.3,263.9c2.5,0,3.8-1.3,3.8-3.2c0-2.2-1.5-2.7-3.7-3.1
		c-1.9-0.3-2.4-0.7-2.4-1.7c0-0.9,0.8-1.5,2-1.5c1.3,0,2,0.5,2.2,1.6h1.6c-0.3-2.3-1.9-3-3.8-3c-1.6,0-3.5,1-3.5,2.9
		c0,1.8,0.9,2.6,3.6,3.1c1.6,0.3,2.4,0.7,2.4,1.8c0,1.1-0.7,1.7-2.3,1.7c-1.7,0-2.3-0.8-2.5-2h-1.6
		C639.3,262.7,640.8,263.9,643.3,263.9 M629.9,263.8h1.7v-5.4l4.6,5.4h2l-4.9-5.6l4.5-4.9h-1.9l-4.3,4.8v-9.8h-1.7V263.8z
		 M621.6,263.9c1.7,0,2.8-0.9,3.3-1.8v1.7h1.7v-10.5h-1.7v6.3c0,1.9-1.4,2.9-2.9,2.9c-1.6,0-2.4-0.8-2.4-2.7v-6.5H618v6.6
		C618,262.8,619.5,263.9,621.6,263.9 M599.9,263.8h1.7v-6.4c0-1.9,1.4-2.8,2.8-2.8c1.4,0,2.2,0.8,2.2,2.6v6.6h1.7v-6.4
		c0-1.9,1.4-2.8,2.8-2.8c1.4,0,2.2,0.8,2.2,2.6v6.6h1.7v-6.5c0-3-1.6-4.2-3.5-4.2c-1.3,0-2.9,0.6-3.6,2c-0.5-1.4-1.7-2-3.1-2
		c-1.5,0-2.6,0.8-3.1,1.8v-1.6h-1.7V263.8z M589.5,257.5c0.3-1.9,1.4-3,3.1-3c1.7,0,2.8,0.9,3,3H589.5z M592.8,263.9
		c2.4,0,4.1-1.1,4.5-3.2h-1.7c-0.2,1.2-1.2,1.8-2.8,1.8c-2.1,0-3.3-1.3-3.4-3.7h7.9v-0.5c0-3.7-2.3-5.2-4.7-5.2
		c-2.9,0-4.9,2.2-4.9,5.4v0.2C587.7,261.9,589.8,263.9,592.8,263.9 M578.6,263.8h1.7v-5.4l4.6,5.4h2l-4.9-5.6l4.5-4.9h-1.9l-4.3,4.8
		v-9.8h-1.7V263.8z M570.8,263.9c3,0,5.2-2.2,5.2-5.3v-0.2c0-3.1-2.2-5.3-5.1-5.3s-5.1,2.2-5.1,5.3v0.2
		C565.7,261.7,567.9,263.9,570.8,263.9 M570.9,262.6c-2.1,0-3.4-1.6-3.4-3.9v-0.2c0-2.4,1.3-4,3.4-4c2.1,0,3.4,1.6,3.4,4v0.1
		C574.3,261,573,262.6,570.9,262.6 M556.6,263.8h1.7v-5.4l4.6,5.4h2l-4.9-5.6l4.5-4.9h-1.9l-4.3,4.8v-9.8h-1.7V263.8z M539.3,263.8
		h1.7v-6.3c0-1.9,1.4-2.9,2.9-2.9c1.7,0,2.5,0.8,2.5,2.7v6.5h1.7v-6.4c0-3-1.5-4.2-3.7-4.2c-1.7,0-2.9,0.9-3.4,1.8v-1.7h-1.7V263.8z
		 M529,257.5c0.3-1.9,1.4-3,3.1-3c1.7,0,2.8,0.9,3,3H529z M532.2,263.9c2.4,0,4.1-1.1,4.5-3.2H535c-0.2,1.2-1.2,1.8-2.8,1.8
		c-2.1,0-3.3-1.3-3.4-3.7h7.9v-0.5c0-3.7-2.3-5.2-4.7-5.2c-2.9,0-4.9,2.2-4.9,5.4v0.2C527.2,261.9,529.3,263.9,532.2,263.9
		 M521.6,263.9c2.5,0,3.8-1.3,3.8-3.2c0-2.2-1.5-2.7-3.7-3.1c-1.9-0.3-2.4-0.7-2.4-1.7c0-0.9,0.8-1.5,2-1.5c1.3,0,2,0.5,2.2,1.6h1.6
		c-0.3-2.3-1.9-3-3.8-3c-1.6,0-3.5,1-3.5,2.9c0,1.8,0.9,2.6,3.6,3.1c1.6,0.3,2.4,0.7,2.4,1.8c0,1.1-0.7,1.7-2.3,1.7
		c-1.7,0-2.3-0.8-2.5-2h-1.6C517.6,262.7,519.1,263.9,521.6,263.9 M514.1,251.1c0.6,0,1.1-0.5,1.1-1.1c0-0.6-0.5-1.1-1.1-1.1
		c-0.6,0-1.1,0.5-1.1,1.1C513,250.6,513.5,251.1,514.1,251.1 M513.3,263.8h1.7v-10.5h-1.7V263.8z M508.1,251.1
		c0.6,0,1.1-0.5,1.1-1.1s-0.5-1.1-1.1-1.1c-0.6,0-1.1,0.5-1.1,1.1S507.5,251.1,508.1,251.1 M504.3,251.1c0.6,0,1.1-0.5,1.1-1.1
		s-0.5-1.1-1.1-1.1c-0.6,0-1.1,0.5-1.1,1.1S503.7,251.1,504.3,251.1 M505.2,262.6c-1.5,0-2-0.7-2-1.8c0-1.5,1.5-2.1,3.6-2.1h1.4v1.3
		C508.3,261.7,507,262.6,505.2,262.6 M505.1,263.9c1.5,0,2.5-0.5,3.3-1.5v1.3h1.7v-6.9c0-2.9-1.8-3.7-3.8-3.7c-2,0-3.9,0.9-4.1,3.3
		h1.7c0.2-1.3,1-1.9,2.4-1.9c1.6,0,2.2,0.7,2.2,2.4v0.8h-1.5c-2.7,0-5.2,0.8-5.2,3.2C501.6,263,503.1,263.9,505.1,263.9
		 M497.4,263.8h1.7v-15.5h-1.7V263.8z M493.1,251.1c0.6,0,1.1-0.5,1.1-1.1c0-0.6-0.5-1.1-1.1-1.1s-1.1,0.5-1.1,1.1
		C492,250.6,492.5,251.1,493.1,251.1 M492.3,263.8h1.7v-10.5h-1.7V263.8z M474,263.8h1.7v-6.4c0-1.9,1.4-2.8,2.8-2.8
		c1.4,0,2.2,0.8,2.2,2.6v6.6h1.7v-6.4c0-1.9,1.4-2.8,2.8-2.8c1.4,0,2.2,0.8,2.2,2.6v6.6h1.7v-6.5c0-3-1.6-4.2-3.5-4.2
		c-1.3,0-2.9,0.6-3.6,2c-0.5-1.4-1.7-2-3.1-2c-1.5,0-2.6,0.8-3.1,1.8v-1.6H474V263.8z M463.7,257.5c0.3-1.9,1.4-3,3.1-3
		c1.7,0,2.8,0.9,3,3H463.7z M467,263.9c2.4,0,4.1-1.1,4.5-3.2h-1.7c-0.2,1.2-1.2,1.8-2.8,1.8c-2.1,0-3.3-1.3-3.4-3.7h7.9v-0.5
		c0-3.7-2.3-5.2-4.7-5.2c-2.9,0-4.9,2.2-4.9,5.4v0.2C461.9,261.9,464,263.9,467,263.9 M451.1,263.8h1.7v-7l6.4,7h2.1l-6.7-7.4l6.4-7
		H459l-6.2,6.9v-6.9h-1.7V263.8z M433.7,263.8h1.7v-6.3c0-1.9,1.4-2.9,2.9-2.9c1.7,0,2.5,0.8,2.5,2.7v6.5h1.7v-6.4
		c0-3-1.5-4.2-3.7-4.2c-1.7,0-2.9,0.9-3.4,1.8v-1.7h-1.7V263.8z M428.5,251.1c0.6,0,1.1-0.5,1.1-1.1s-0.5-1.1-1.1-1.1
		s-1.1,0.5-1.1,1.1S427.9,251.1,428.5,251.1 M424.8,251.1c0.6,0,1.1-0.5,1.1-1.1s-0.5-1.1-1.1-1.1c-0.6,0-1.1,0.5-1.1,1.1
		S424.2,251.1,424.8,251.1 M425.7,262.6c-1.5,0-2-0.7-2-1.8c0-1.5,1.5-2.1,3.6-2.1h1.4v1.3C428.8,261.7,427.4,262.6,425.7,262.6
		 M425.5,263.9c1.5,0,2.5-0.5,3.3-1.5v1.3h1.7v-6.9c0-2.9-1.8-3.7-3.8-3.7c-2,0-3.9,0.9-4.1,3.3h1.7c0.2-1.3,1-1.9,2.4-1.9
		c1.6,0,2.2,0.7,2.2,2.4v0.8h-1.5c-2.7,0-5.2,0.8-5.2,3.2C422,263,423.6,263.9,425.5,263.9 M417.7,251.1c0.6,0,1.1-0.5,1.1-1.1
		s-0.5-1.1-1.1-1.1c-0.6,0-1.1,0.5-1.1,1.1S417.1,251.1,417.7,251.1 M414,251.1c0.6,0,1.1-0.5,1.1-1.1s-0.5-1.1-1.1-1.1
		s-1.1,0.5-1.1,1.1S413.4,251.1,414,251.1 M414.9,262.6c-1.5,0-2-0.7-2-1.8c0-1.5,1.5-2.1,3.6-2.1h1.4v1.3
		C418,261.7,416.6,262.6,414.9,262.6 M414.7,263.9c1.5,0,2.5-0.5,3.3-1.5v1.3h1.7v-6.9c0-2.9-1.8-3.7-3.8-3.7c-2,0-3.9,0.9-4.1,3.3
		h1.7c0.2-1.3,1-1.9,2.4-1.9c1.6,0,2.2,0.7,2.2,2.4v0.8h-1.5c-2.7,0-5.2,0.8-5.2,3.2C411.2,263,412.8,263.9,414.7,263.9
		 M404.7,263.8h1.7V258c0-2.6,1.3-3.2,3.4-3.3v-1.6c-1.9,0.1-2.8,0.9-3.4,2.1v-1.9h-1.7V263.8z M394.3,257.5c0.3-1.9,1.4-3,3.1-3
		c1.7,0,2.8,0.9,3,3H394.3z M397.6,263.9c2.4,0,4.1-1.1,4.5-3.2h-1.7c-0.2,1.2-1.2,1.8-2.8,1.8c-2.1,0-3.3-1.3-3.4-3.7h7.9v-0.5
		c0-3.7-2.3-5.2-4.7-5.2c-2.9,0-4.9,2.2-4.9,5.4v0.2C392.5,261.9,394.6,263.9,397.6,263.9 M380,262.6c-1.5,0-2-0.7-2-1.8
		c0-1.5,1.5-2.1,3.6-2.1h1.4v1.3C383.1,261.7,381.8,262.6,380,262.6 M379.8,263.9c1.5,0,2.5-0.5,3.3-1.5v1.3h1.7v-6.9
		c0-2.9-1.8-3.7-3.8-3.7c-2,0-3.9,0.9-4.1,3.3h1.7c0.2-1.3,1-1.9,2.4-1.9c1.6,0,2.2,0.7,2.2,2.4v0.8h-1.5c-2.7,0-5.2,0.8-5.2,3.2
		C376.4,263,377.9,263.9,379.8,263.9 M373,251.1c0.6,0,1.1-0.5,1.1-1.1c0-0.6-0.5-1.1-1.1-1.1s-1.1,0.5-1.1,1.1
		C371.9,250.6,372.4,251.1,373,251.1 M372.2,263.8h1.7v-10.5h-1.7V263.8z M365.8,263.9c2.5,0,3.8-1.3,3.8-3.2c0-2.2-1.5-2.7-3.7-3.1
		c-1.9-0.3-2.4-0.7-2.4-1.7c0-0.9,0.8-1.5,2-1.5c1.3,0,2,0.5,2.2,1.6h1.6c-0.3-2.3-1.9-3-3.8-3c-1.6,0-3.5,1-3.5,2.9
		c0,1.8,0.9,2.6,3.6,3.1c1.6,0.3,2.4,0.7,2.4,1.8c0,1.1-0.7,1.7-2.3,1.7c-1.7,0-2.3-0.8-2.5-2h-1.6
		C361.8,262.7,363.3,263.9,365.8,263.9 M352.4,263.8h1.7v-5.4l4.6,5.4h2l-4.9-5.6l4.5-4.9h-1.9l-4.3,4.8v-9.8h-1.7V263.8z
		 M344.1,263.9c1.7,0,2.8-0.9,3.3-1.8v1.7h1.7v-10.5h-1.7v6.3c0,1.9-1.4,2.9-2.9,2.9c-1.6,0-2.4-0.8-2.4-2.7v-6.5h-1.7v6.6
		C340.4,262.8,342,263.9,344.1,263.9 M322.3,263.8h1.7v-6.4c0-1.9,1.4-2.8,2.8-2.8c1.4,0,2.2,0.8,2.2,2.6v6.6h1.7v-6.4
		c0-1.9,1.4-2.8,2.8-2.8c1.4,0,2.2,0.8,2.2,2.6v6.6h1.7v-6.5c0-3-1.6-4.2-3.5-4.2c-1.3,0-2.9,0.6-3.6,2c-0.5-1.4-1.7-2-3.1-2
		c-1.5,0-2.6,0.8-3.1,1.8v-1.6h-1.7V263.8z M314.6,263.9c3,0,5.2-2.2,5.2-5.3v-0.2c0-3.1-2.2-5.3-5.1-5.3c-3,0-5.1,2.2-5.1,5.3v0.2
		C309.5,261.7,311.6,263.9,314.6,263.9 M314.6,262.6c-2.1,0-3.4-1.6-3.4-3.9v-0.2c0-2.4,1.3-4,3.4-4c2.1,0,3.4,1.6,3.4,4v0.1
		C318,261,316.7,262.6,314.6,262.6 M306.3,263.9c0.7,0,1.1-0.1,1.4-0.2v-1.4c-0.4,0.1-0.8,0.2-1.3,0.2c-0.8,0-1.3-0.5-1.3-1.5v-6.3
		h2.4v-1.4h-2.4v-2.4h-1.7v2.4H302v1.4h1.5v6.4C303.5,262.8,304.4,263.9,306.3,263.9 M295.5,263.8h1.7V258c0-2.6,1.3-3.2,3.4-3.3
		v-1.6c-1.9,0.1-2.8,0.9-3.4,2.1v-1.9h-1.7V263.8z M285.2,257.5c0.3-1.9,1.4-3,3.1-3c1.7,0,2.8,0.9,3,3H285.2z M288.4,263.9
		c2.4,0,4.1-1.1,4.5-3.2h-1.7c-0.2,1.2-1.2,1.8-2.8,1.8c-2.1,0-3.3-1.3-3.4-3.7h7.9v-0.5c0-3.7-2.3-5.2-4.7-5.2
		c-2.9,0-4.9,2.2-4.9,5.4v0.2C283.4,261.9,285.5,263.9,288.4,263.9 M274.2,263.8h1.7v-5.4l4.6,5.4h2l-4.9-5.6l4.5-4.9h-1.9l-4.3,4.8
		v-9.8h-1.7V263.8z M266.2,262.6c-1.5,0-2-0.7-2-1.8c0-1.5,1.5-2.1,3.6-2.1h1.4v1.3C269.3,261.7,268,262.6,266.2,262.6 M266.1,263.9
		c1.5,0,2.5-0.5,3.3-1.5v1.3h1.7v-6.9c0-2.9-1.8-3.7-3.8-3.7c-2,0-3.9,0.9-4.1,3.3h1.7c0.2-1.3,1-1.9,2.4-1.9c1.6,0,2.2,0.7,2.2,2.4
		v0.8h-1.5c-2.7,0-5.2,0.8-5.2,3.2C262.6,263,264.1,263.9,266.1,263.9 M255.5,263.8h2.1l3.8-10.5h-1.7l-3.1,8.8l-3.1-8.8h-1.8
		L255.5,263.8z M244.5,263.9c1.7,0,2.8-0.9,3.3-1.8v1.7h1.7v-10.5h-1.7v6.3c0,1.9-1.4,2.9-2.9,2.9c-1.6,0-2.4-0.8-2.4-2.7v-6.5h-1.7
		v6.6C240.9,262.8,242.4,263.9,244.5,263.9 M231,263.8h1.7v-5.4l4.6,5.4h2l-4.9-5.6l4.5-4.9H237l-4.3,4.8v-9.8H231V263.8z
		 M217.6,262.6c-1.5,0-2-0.7-2-1.8c0-1.5,1.5-2.1,3.6-2.1h1.4v1.3C220.7,261.7,219.4,262.6,217.6,262.6 M217.5,263.9
		c1.5,0,2.5-0.5,3.3-1.5v1.3h1.7v-6.9c0-2.9-1.8-3.7-3.8-3.7c-2,0-3.9,0.9-4.1,3.3h1.7c0.2-1.3,1-1.9,2.4-1.9c1.6,0,2.2,0.7,2.2,2.4
		v0.8h-1.5c-2.7,0-5.2,0.8-5.2,3.2C214,263,215.5,263.9,217.5,263.9 M210.6,251.1c0.6,0,1.1-0.5,1.1-1.1c0-0.6-0.5-1.1-1.1-1.1
		c-0.6,0-1.1,0.5-1.1,1.1C209.5,250.6,210,251.1,210.6,251.1 M208.3,267.6c2.3-0.1,3.2-1.2,3.2-3.2v-11.1h-1.7v11.3
		c0,0.9-0.4,1.5-1.5,1.6V267.6z M196.4,262.6c-1.5,0-2-0.7-2-1.8c0-1.5,1.5-2.1,3.6-2.1h1.4v1.3
		C199.5,261.7,198.2,262.6,196.4,262.6 M196.3,263.9c1.5,0,2.5-0.5,3.3-1.5v1.3h1.7v-6.9c0-2.9-1.8-3.7-3.8-3.7
		c-2,0-3.9,0.9-4.1,3.3h1.7c0.2-1.3,1-1.9,2.4-1.9c1.6,0,2.2,0.7,2.2,2.4v0.8H198c-2.7,0-5.2,0.8-5.2,3.2
		C192.8,263,194.3,263.9,196.3,263.9 M189.4,251.1c0.6,0,1.1-0.5,1.1-1.1c0-0.6-0.5-1.1-1.1-1.1c-0.6,0-1.1,0.5-1.1,1.1
		C188.3,250.6,188.8,251.1,189.4,251.1 M188.6,263.8h1.7v-10.5h-1.7V263.8z M180.5,263.8h2.1l3.8-10.5h-1.7l-3.1,8.8l-3.1-8.8h-1.8
		L180.5,263.8z M169.5,263.9c1.7,0,2.8-0.9,3.3-1.8v1.7h1.7v-10.5h-1.7v6.3c0,1.9-1.4,2.9-2.9,2.9c-1.6,0-2.4-0.8-2.4-2.7v-6.5h-1.7
		v6.6C165.9,262.8,167.5,263.9,169.5,263.9 M156,263.8h1.7v-5.4l4.6,5.4h2l-4.9-5.6l4.5-4.9H162l-4.3,4.8v-9.8H156V263.8z
		 M151.7,251.1c0.6,0,1.1-0.5,1.1-1.1c0-0.6-0.5-1.1-1.1-1.1c-0.6,0-1.1,0.5-1.1,1.1C150.6,250.6,151.1,251.1,151.7,251.1
		 M150.9,263.8h1.7v-10.5h-1.7V263.8z M138.9,263.8h1.7v-6.3c0-1.9,1.4-2.9,2.9-2.9c1.7,0,2.5,0.8,2.5,2.7v6.5h1.7v-6.4
		c0-3-1.5-4.2-3.7-4.2c-1.7,0-2.9,0.9-3.4,1.8v-1.7h-1.7V263.8z M133.7,251.1c0.6,0,1.1-0.5,1.1-1.1s-0.5-1.1-1.1-1.1
		s-1.1,0.5-1.1,1.1S133.2,251.1,133.7,251.1 M130,251.1c0.6,0,1.1-0.5,1.1-1.1s-0.5-1.1-1.1-1.1s-1.1,0.5-1.1,1.1
		S129.4,251.1,130,251.1 M130.9,262.6c-1.5,0-2-0.7-2-1.8c0-1.5,1.5-2.1,3.6-2.1h1.4v1.3C134,261.7,132.7,262.6,130.9,262.6
		 M130.7,263.9c1.5,0,2.5-0.5,3.3-1.5v1.3h1.7v-6.9c0-2.9-1.8-3.7-3.8-3.7c-2,0-3.9,0.9-4.1,3.3h1.7c0.2-1.3,1-1.9,2.4-1.9
		c1.6,0,2.2,0.7,2.2,2.4v0.8h-1.5c-2.7,0-5.2,0.8-5.2,3.2C127.3,263,128.8,263.9,130.7,263.9 M121.7,248c0.6,0,1.1-0.5,1.1-1.1
		s-0.5-1.1-1.1-1.1c-0.6,0-1.1,0.5-1.1,1.1S121.1,248,121.7,248 M117.7,248c0.6,0,1.1-0.5,1.1-1.1s-0.5-1.1-1.1-1.1
		s-1.1,0.5-1.1,1.1S117.1,248,117.7,248 M119.7,250.9l2.5,7.4h-5L119.7,250.9z M113.7,263.8h1.6l1.4-4.1h5.9l1.4,4.1h1.7l-4.8-14.3
		h-2.3L113.7,263.8z"/>
	<path clip-path="url(#SVGID_2_)" fill="#F37920" d="M573.9,223.3l5-8.6v8.6H573.9z M578.8,227.8h1.7v-3h2v-1.4h-2v-9.9h-2.3
		l-6.5,10.7v0.6h7.2V227.8z M567.2,227.8h1.7v-14.3h-1.6l-3.3,2.4v1.6l3.2-2.3V227.8z M556.6,227.9c3.5,0,5.5-2.8,5.5-7v-0.8
		c0-4.1-2.1-6.9-5.6-6.9c-3.5,0-5.6,2.7-5.6,6.9v0.8C550.9,225.2,553.2,227.9,556.6,227.9 M556.6,226.5c-2.4,0-3.9-1.9-3.9-5.5v-0.8
		c0-3.5,1.4-5.5,3.9-5.5s3.8,2.2,3.8,5.5v0.8C560.4,224.6,559.1,226.5,556.6,226.5 M539.1,227.8h9.6v-1.4h-6.9l3.9-3.8
		c1.8-1.7,2.9-3.4,2.9-5.2c0-2.5-1.7-4-4.3-4c-2.7,0-4.4,1.8-4.6,4.6h1.6c0.3-2.2,1.4-3.2,3-3.2c1.6,0,2.6,1,2.6,2.6
		c0,1.5-0.8,2.8-2.1,4.1l-5.7,6V227.8z M535.9,227.9c0.7,0,1.3-0.6,1.3-1.3s-0.6-1.3-1.3-1.3c-0.7,0-1.3,0.6-1.3,1.3
		S535.2,227.9,535.9,227.9 M527.8,221.4c-1.9,0-3.2-1.3-3.2-3.4c0-2,1.3-3.3,3.2-3.3c1.9,0,3.3,1.3,3.3,3.6
		C531.1,220.1,529.8,221.4,527.8,221.4 M527.6,227.9c3.4,0,5.4-2.6,5.4-7.4v-0.9c0-4.1-1.8-6.4-5.1-6.4c-3,0-4.9,1.9-4.9,4.8
		c0,2.7,1.9,4.7,4.7,4.7c1.6,0,3-0.7,3.7-1.9c0,3.8-1.4,5.7-3.7,5.7c-1.8,0-2.6-0.9-3-2.3H523C523.4,226.5,524.9,227.9,527.6,227.9
		 M519.6,227.9c0.7,0,1.3-0.6,1.3-1.3s-0.6-1.3-1.3-1.3s-1.3,0.6-1.3,1.3S518.9,227.9,519.6,227.9 M513,227.8h1.7v-14.3h-1.6
		l-3.3,2.4v1.6l3.2-2.3V227.8z M498.5,227.8h9.6v-1.4h-6.9l3.9-3.8c1.8-1.7,2.9-3.4,2.9-5.2c0-2.5-1.7-4-4.3-4
		c-2.7,0-4.4,1.8-4.6,4.6h1.6c0.3-2.2,1.4-3.2,3-3.2c1.6,0,2.6,1,2.6,2.6c0,1.5-0.8,2.8-2.1,4.1l-5.7,6V227.8z M483.2,222.9h8.7
		v-1.4h-8.7V222.9z M474.1,227.9c0.7,0,1.3-0.6,1.3-1.3s-0.6-1.3-1.3-1.3c-0.7,0-1.3,0.6-1.3,1.3S473.4,227.9,474.1,227.9
		 M465.8,219.4c-1.5,0-2.7-0.9-2.7-2.4c0-1.5,1.2-2.4,2.6-2.4c1.5,0,2.6,1,2.6,2.3C468.4,218.5,467.3,219.4,465.8,219.4
		 M465.8,226.5c-1.7,0-3.2-1-3.2-2.9c0-1.9,1.5-2.9,3.2-2.9c1.7,0,3.1,1,3.1,2.8C468.9,225.5,467.5,226.5,465.8,226.5 M465.8,227.9
		c2.4,0,4.9-1.4,4.9-4.3c0-1.8-1.1-3.1-2.7-3.7c1.3-0.6,2.2-1.6,2.2-3c0-2.2-2.2-3.7-4.4-3.7c-2.2,0-4.4,1.4-4.4,3.7
		c0,1.4,0.8,2.5,2.2,3c-1.5,0.5-2.7,1.8-2.7,3.7C460.8,226.5,463.4,227.9,465.8,227.9 M457.4,227.9c0.7,0,1.3-0.6,1.3-1.3
		s-0.6-1.3-1.3-1.3c-0.7,0-1.3,0.6-1.3,1.3S456.7,227.9,457.4,227.9 M449.2,227.9c2.7,0,4.9-1.8,4.9-4.9c0-2.9-1.9-4.7-4.4-4.7
		c-1.4,0-2.3,0.4-2.9,1V215h6.6v-1.5h-8v7.7h0.6c0.8-0.9,1.7-1.4,3.4-1.4c1.8,0,3,1.3,3,3.3c0,2.2-1.2,3.5-3.1,3.5
		c-2.2,0-2.8-1.1-3.1-2.6h-1.7C444.7,226.2,446.1,227.9,449.2,227.9 M439.5,227.8h1.7v-14.3h-1.6l-3.3,2.4v1.6l3.2-2.3V227.8z
		 M426.8,215.1c0.6,0,1.1-0.5,1.1-1.1s-0.5-1.1-1.1-1.1c-0.6,0-1.1,0.5-1.1,1.1S426.2,215.1,426.8,215.1 M423.1,215.1
		c0.6,0,1.1-0.5,1.1-1.1s-0.5-1.1-1.1-1.1c-0.6,0-1.1,0.5-1.1,1.1S422.5,215.1,423.1,215.1 M424,226.6c-1.5,0-2-0.7-2-1.8
		c0-1.5,1.5-2.1,3.6-2.1h1.4v1.3C427.1,225.7,425.7,226.6,424,226.6 M423.8,227.9c1.5,0,2.5-0.5,3.3-1.5v1.3h1.7v-6.9
		c0-2.9-1.8-3.7-3.8-3.7c-2,0-3.9,0.9-4.1,3.3h1.7c0.2-1.3,1-1.9,2.4-1.9c1.6,0,2.2,0.7,2.2,2.4v0.8h-1.5c-2.7,0-5.2,0.8-5.2,3.2
		C420.3,227,421.9,227.9,423.8,227.9 M414.8,227.9c2.5,0,3.8-1.3,3.8-3.2c0-2.2-1.5-2.7-3.7-3.1c-1.9-0.3-2.4-0.7-2.4-1.7
		c0-0.9,0.8-1.5,2-1.5c1.3,0,2,0.5,2.2,1.6h1.6c-0.3-2.3-1.9-3-3.8-3c-1.6,0-3.5,1-3.5,2.9c0,1.8,0.9,2.6,3.6,3.1
		c1.6,0.3,2.4,0.7,2.4,1.8c0,1.1-0.7,1.7-2.3,1.7c-1.7,0-2.3-0.8-2.5-2h-1.6C410.8,226.7,412.3,227.9,414.8,227.9 M405.2,227.9
		c2.5,0,3.8-1.3,3.8-3.2c0-2.2-1.5-2.7-3.7-3.1c-1.9-0.3-2.4-0.7-2.4-1.7c0-0.9,0.8-1.5,2-1.5c1.3,0,2,0.5,2.2,1.6h1.6
		c-0.3-2.3-1.9-3-3.8-3c-1.6,0-3.5,1-3.5,2.9c0,1.8,0.9,2.6,3.6,3.1c1.6,0.3,2.4,0.7,2.4,1.8c0,1.1-0.7,1.7-2.3,1.7
		c-1.7,0-2.3-0.8-2.5-2h-1.6C401.2,226.7,402.7,227.9,405.2,227.9 M397.7,215.1c0.6,0,1.1-0.5,1.1-1.1c0-0.6-0.5-1.1-1.1-1.1
		s-1.1,0.5-1.1,1.1C396.6,214.6,397.1,215.1,397.7,215.1 M396.9,227.8h1.7v-10.5h-1.7V227.8z M378.7,227.8h1.7v-6.4
		c0-1.9,1.4-2.8,2.8-2.8c1.4,0,2.2,0.8,2.2,2.6v6.6h1.7v-6.4c0-1.9,1.4-2.8,2.8-2.8c1.4,0,2.2,0.8,2.2,2.6v6.6h1.7v-6.5
		c0-3-1.6-4.2-3.5-4.2c-1.3,0-2.9,0.6-3.6,2c-0.5-1.4-1.7-2-3.1-2c-1.5,0-2.6,0.8-3.1,1.8v-1.6h-1.7V227.8z M368.4,221.5
		c0.3-1.9,1.4-3,3.1-3c1.7,0,2.8,0.9,3,3H368.4z M371.6,227.9c2.4,0,4.1-1.1,4.5-3.2h-1.7c-0.2,1.2-1.2,1.8-2.8,1.8
		c-2.1,0-3.3-1.3-3.4-3.7h7.9v-0.5c0-3.7-2.3-5.2-4.7-5.2c-2.9,0-4.9,2.2-4.9,5.4v0.2C366.6,225.9,368.7,227.9,371.6,227.9
		 M355.8,227.8h1.7v-7l6.4,7h2.1l-6.7-7.4l6.4-7h-1.9l-6.2,6.9v-6.9h-1.7V227.8z M342.3,226.6c-1.5,0-2-0.7-2-1.8
		c0-1.5,1.5-2.1,3.6-2.1h1.4v1.3C345.4,225.7,344.1,226.6,342.3,226.6 M342.2,227.9c1.5,0,2.5-0.5,3.3-1.5v1.3h1.7v-6.9
		c0-2.9-1.8-3.7-3.8-3.7c-2,0-3.9,0.9-4.1,3.3h1.7c0.2-1.3,1-1.9,2.4-1.9c1.6,0,2.2,0.7,2.2,2.4v0.8h-1.5c-2.7,0-5.2,0.8-5.2,3.2
		C338.7,227,340.2,227.9,342.2,227.9 M331.5,226.6c-1.5,0-2-0.7-2-1.8c0-1.5,1.5-2.1,3.6-2.1h1.4v1.3
		C334.6,225.7,333.3,226.6,331.5,226.6 M331.4,227.9c1.5,0,2.5-0.5,3.3-1.5v1.3h1.7v-6.9c0-2.9-1.8-3.7-3.8-3.7
		c-2,0-3.9,0.9-4.1,3.3h1.7c0.2-1.3,1-1.9,2.4-1.9c1.6,0,2.2,0.7,2.2,2.4v0.8h-1.5c-2.7,0-5.2,0.8-5.2,3.2
		C327.9,227,329.4,227.9,331.4,227.9 M324.5,215.1c0.6,0,1.1-0.5,1.1-1.1c0-0.6-0.5-1.1-1.1-1.1c-0.6,0-1.1,0.5-1.1,1.1
		C323.4,214.6,323.9,215.1,324.5,215.1 M323.7,227.8h1.7v-10.5h-1.7V227.8z M316.1,227.8h1.7V222c0-2.6,1.3-3.2,3.4-3.3v-1.6
		c-1.9,0.1-2.8,0.9-3.4,2.1v-1.9h-1.7V227.8z M308.4,227.9c3,0,5.2-2.2,5.2-5.3v-0.2c0-3.1-2.2-5.3-5.1-5.3s-5.1,2.2-5.1,5.3v0.2
		C303.3,225.7,305.4,227.9,308.4,227.9 M308.4,226.6c-2.1,0-3.4-1.6-3.4-3.9v-0.2c0-2.4,1.3-4,3.4-4c2.1,0,3.4,1.6,3.4,4v0.1
		C311.8,225,310.5,226.6,308.4,226.6 M300.1,227.9c0.7,0,1.1-0.1,1.4-0.2v-1.4c-0.4,0.1-0.8,0.2-1.3,0.2c-0.8,0-1.3-0.5-1.3-1.5
		v-6.3h2.4v-1.4H299v-2.4h-1.7v2.4h-1.5v1.4h1.5v6.4C297.3,226.8,298.2,227.9,300.1,227.9 M290.6,227.9c2.5,0,3.8-1.3,3.8-3.2
		c0-2.2-1.5-2.7-3.7-3.1c-1.9-0.3-2.4-0.7-2.4-1.7c0-0.9,0.8-1.5,2-1.5c1.3,0,2,0.5,2.2,1.6h1.6c-0.3-2.3-1.9-3-3.8-3
		c-1.6,0-3.5,1-3.5,2.9c0,1.8,0.9,2.6,3.6,3.1c1.6,0.3,2.4,0.7,2.4,1.8c0,1.1-0.7,1.7-2.3,1.7c-1.7,0-2.3-0.8-2.5-2h-1.6
		C286.6,226.7,288.1,227.9,290.6,227.9 M283.1,215.1c0.6,0,1.1-0.5,1.1-1.1c0-0.6-0.5-1.1-1.1-1.1s-1.1,0.5-1.1,1.1
		C282,214.6,282.5,215.1,283.1,215.1 M282.3,227.8h1.7v-10.5h-1.7V227.8z M270.3,227.8h1.7v-6.3c0-1.9,1.4-2.9,2.9-2.9
		c1.7,0,2.5,0.8,2.5,2.7v6.5h1.7v-6.4c0-3-1.5-4.2-3.7-4.2c-1.7,0-2.9,0.9-3.4,1.8v-6.7h-1.7V227.8z M262.5,227.9
		c3,0,5.2-2.2,5.2-5.3v-0.2c0-3.1-2.2-5.3-5.1-5.3s-5.1,2.2-5.1,5.3v0.2C257.4,225.7,259.6,227.9,262.5,227.9 M262.6,226.6
		c-2.1,0-3.4-1.6-3.4-3.9v-0.2c0-2.4,1.3-4,3.4-4c2.1,0,3.4,1.6,3.4,4v0.1C266,225,264.7,226.6,262.6,226.6 M251,227.8h1.7V222
		c0-2.6,1.3-3.2,3.4-3.3v-1.6c-1.9,0.1-2.8,0.9-3.4,2.1v-1.9H251V227.8z M240.7,227.8h1.7v-5.4l4.6,5.4h2l-4.9-5.6l4.5-4.9h-1.9
		l-4.3,4.8v-9.8h-1.7V227.8z M236.4,215.1c0.6,0,1.1-0.5,1.1-1.1c0-0.6-0.5-1.1-1.1-1.1c-0.6,0-1.1,0.5-1.1,1.1
		C235.3,214.6,235.8,215.1,236.4,215.1 M235.6,227.8h1.7v-10.5h-1.7V227.8z M218.6,227.8h1.6v-12l4.9,12h0.5l4.7-12v12h1.7v-14.3
		h-2.4l-4.3,11.1l-4.4-11.1h-2.4V227.8z"/>
	<path clip-path="url(#SVGID_2_)" fill="#F37920" d="M692.2,144.6h-14.5v25.7c0,4.8,0,10.8-6.9,10.8c-7.1,0-7.1-6-7.1-10.8v-25.7
		h-14.5v28.9c0,13.1,7.1,19.3,21.5,19.3s21.5-6.3,21.5-19.3V144.6z M585.3,191.8h14.5v-13.9l4-4.4l11.6,18.3h18.1L613.7,163
		l17.1-18.4h-17.9l-12.9,16.2h-0.1v-16.2h-14.5V191.8z M530.5,191.8h35.4v-12.1H545v-35h-14.5V191.8z M478,168.2
		c0-10.5,5.7-12.9,9.4-12.9c3.7,0,9.4,2.4,9.4,12.9s-5.7,12.9-9.4,12.9C483.7,181.1,478,178.7,478,168.2 M463.5,168.2
		c0,14.4,9.6,24.7,23.9,24.7c14.3,0,23.9-10.3,23.9-24.7s-9.6-24.7-23.9-24.7C473.1,143.5,463.5,153.8,463.5,168.2 M422.6,156.7h6.5
		c3.6,0,6.9,0.3,6.9,4.6c0,4.8-4,5-7.7,5h-5.6V156.7z M408,191.8h14.5v-14.3h8.6c10.8,0,18.5-5.3,18.5-16.8
		c0-6.7-4.5-16.1-17.3-16.1H408V191.8z M318.8,191.8h13.7V166h0.1l14.5,25.7h14.1v-47.1h-13.7v25.2h-0.1l-13.7-25.2h-14.9V191.8z
		 M252.5,191.8h14.6l2.1-6.7h15l2,6.7h15L284,144.6h-14.2L252.5,191.8z M272.4,174.9l4.6-14.5h0.1l4.2,14.5H272.4z M237,144.6h-14.5
		V175c0,2.1,0.3,6.7-3.5,6.7c-3.9,0-3.9-3.4-3.9-7V172H202v4c0,10.3,5.3,17,17.3,17c11.8,0,17.7-5.1,17.7-18.1V144.6z M169,191.8
		h14.5v-47.1H169V191.8z M107.9,191.8h39.7v-12.1h-25.2v-5.9h22.2v-11.2h-22.2v-5.9H147v-12.1h-39V191.8z"/>
	<path clip-path="url(#SVGID_2_)" fill="#F37920" d="M494.9,117.3c1.2,0,2.1-0.9,2.1-2c0-1.1-0.9-2-2.1-2c-1.2,0-2,0.9-2,2
		C492.9,116.4,493.8,117.3,494.9,117.3 M494.9,123c1.2,0,2.1-0.9,2.1-2s-0.9-2-2.1-2c-1.2,0-2,0.9-2,2S493.8,123,494.9,123
		 M488.3,111.2c1,0,1.7-0.7,1.7-1.7c0-0.9-0.8-1.7-1.7-1.7s-1.7,0.8-1.7,1.7C486.6,110.4,487.3,111.2,488.3,111.2 M484,111.2
		c1,0,1.7-0.7,1.7-1.7c0-0.9-0.8-1.7-1.7-1.7c-0.9,0-1.7,0.8-1.7,1.7C482.3,110.4,483.1,111.2,484,111.2 M485.6,120.6
		c-0.8,0-1.2-0.4-1.2-1c0-0.9,0.6-1.1,2.1-1.1h0.9v0.6C487.4,120,486.6,120.6,485.6,120.6 M484.3,123c1.7,0,2.6-0.7,3.1-1.5v1.2h3.5
		V116c0-2.8-1.8-4-4.7-4c-2.9,0-4.8,1.2-5,3.8h3.4c0.1-0.7,0.4-1.2,1.4-1.2c1.1,0,1.4,0.7,1.4,1.7v0.2h-1c-3.5,0-5.6,1-5.6,3.4
		C480.8,122.1,482.5,123,484.3,123 M476.7,111.2c1,0,1.7-0.7,1.7-1.7c0-0.9-0.8-1.7-1.7-1.7c-1,0-1.7,0.8-1.7,1.7
		C475,110.4,475.8,111.2,476.7,111.2 M472.5,111.2c1,0,1.7-0.7,1.7-1.7c0-0.9-0.8-1.7-1.7-1.7c-0.9,0-1.7,0.8-1.7,1.7
		C470.8,110.4,471.5,111.2,472.5,111.2 M474,120.6c-0.8,0-1.2-0.4-1.2-1c0-0.9,0.6-1.1,2.1-1.1h0.9v0.6
		C475.8,120,475,120.6,474,120.6 M472.8,123c1.7,0,2.6-0.7,3.1-1.5v1.2h3.5V116c0-2.8-1.8-4-4.7-4c-2.9,0-4.8,1.2-5,3.8h3.4
		c0.1-0.7,0.4-1.2,1.4-1.2c1.1,0,1.4,0.7,1.4,1.7v0.2h-1c-3.5,0-5.6,1-5.6,3.4C469.2,122.1,470.9,123,472.8,123 M466.2,123
		c0.8,0,1.5-0.2,2-0.3V120c-0.3,0.1-0.6,0.2-1,0.2c-0.7,0-1.1-0.3-1.1-1.1v-4.3h2.1v-2.4h-2.1v-2.2h-3.6v2.2h-1.3v2.4h1.3v4.7
		C462.5,121.9,463.9,123,466.2,123 M458.4,123c0.8,0,1.5-0.2,2-0.3V120c-0.3,0.1-0.6,0.2-1,0.2c-0.7,0-1.1-0.3-1.1-1.1v-4.3h2.1
		v-2.4h-2.1v-2.2h-3.6v2.2h-1.3v2.4h1.3v4.7C454.8,121.9,456.1,123,458.4,123 M450.3,111.3c1.1,0,2-0.8,2-1.8s-0.9-1.9-2-1.9
		s-2,0.8-2,1.9S449.1,111.3,450.3,111.3 M448.5,122.8h3.6v-10.5h-3.6V122.8z M442.2,123c2.9,0,4.7-1.1,4.7-3.6c0-2.2-1.4-3-4.3-3.4
		c-1.3-0.2-1.8-0.4-1.8-0.9c0-0.5,0.4-0.8,1.2-0.8c0.8,0,1.2,0.3,1.3,1h3.2c-0.2-2.5-2-3.4-4.6-3.4c-2.4,0-4.5,1.1-4.5,3.4
		c0,2.2,1.2,3,4,3.4c1.4,0.2,1.9,0.4,1.9,0.9c0,0.5-0.4,0.9-1.3,0.9c-1,0-1.4-0.4-1.5-1.2h-3.3C437.5,121.8,439.2,123,442.2,123
		 M429.1,116.3c0.2-1.3,0.9-2,2-2c1.2,0,1.8,0.7,1.8,2H429.1z M431.1,123c3.2,0,5-1.3,5.3-3.7h-3.4c-0.1,0.7-0.6,1.2-1.8,1.2
		c-1.3,0-2.1-0.8-2.2-2.2h7.4v-0.9c0-3.8-2.5-5.4-5.3-5.4c-3.2,0-5.7,2.1-5.7,5.5v0.2C425.5,121.1,427.9,123,431.1,123 M414.8,123
		c3.2,0,5.7-2,5.7-5.4v-0.2c0-3.3-2.5-5.4-5.7-5.4c-3.2,0-5.7,2.1-5.7,5.5v0.2C409.1,121,411.6,123,414.8,123 M414.8,120.3
		c-1.4,0-2.1-1-2.1-2.8v-0.2c0-1.8,0.7-2.7,2.1-2.7c1.4,0,2.1,1,2.1,2.7v0.2C416.9,119.3,416.2,120.3,414.8,120.3 M402.3,120.3
		c-1.3,0-2.1-0.9-2.1-2.7v-0.2c0-1.8,0.8-2.7,2.1-2.7c1.3,0,2.1,0.9,2.1,2.7v0.2C404.4,119.3,403.7,120.3,402.3,120.3 M396.8,126.3
		h3.6v-5c0.5,1,1.7,1.8,3.2,1.8c2.5,0,4.4-1.8,4.4-5.4v-0.2c0-3.6-2-5.4-4.4-5.4c-1.6,0-2.7,0.8-3.3,1.8v-1.6h-3.6V126.3z
		 M389.5,123c3.2,0,5.7-2,5.7-5.4v-0.2c0-3.3-2.5-5.4-5.7-5.4c-3.2,0-5.7,2.1-5.7,5.5v0.2C383.8,121,386.3,123,389.5,123
		 M389.5,120.3c-1.4,0-2.1-1-2.1-2.8v-0.2c0-1.8,0.7-2.7,2.1-2.7c1.4,0,2.1,1,2.1,2.7v0.2C391.6,119.3,390.9,120.3,389.5,120.3
		 M380.3,111.3c1.1,0,2-0.8,2-1.8s-0.9-1.9-2-1.9s-2,0.8-2,1.9S379.2,111.3,380.3,111.3 M377.3,126.4c3.8,0,4.8-1.5,4.8-3.8v-10.4
		h-3.6v10.3c0,0.8-0.4,1.2-1.3,1.2V126.4z M374.4,111.3c1.1,0,2-0.8,2-1.8s-0.9-1.9-2-1.9s-2,0.8-2,1.9S373.3,111.3,374.4,111.3
		 M372.6,122.8h3.6v-10.5h-3.6V122.8z M366.3,123c2.9,0,4.7-1.1,4.7-3.6c0-2.2-1.4-3-4.3-3.4c-1.3-0.2-1.8-0.4-1.8-0.9
		c0-0.5,0.4-0.8,1.2-0.8c0.8,0,1.2,0.3,1.3,1h3.2c-0.2-2.5-2-3.4-4.6-3.4c-2.4,0-4.5,1.1-4.5,3.4c0,2.2,1.2,3,4,3.4
		c1.4,0.2,1.9,0.4,1.9,0.9c0,0.5-0.4,0.9-1.3,0.9c-1,0-1.4-0.4-1.5-1.2h-3.3C361.6,121.8,363.4,123,366.3,123 M355.9,123
		c2.9,0,4.7-1.1,4.7-3.6c0-2.2-1.4-3-4.3-3.4c-1.3-0.2-1.8-0.4-1.8-0.9c0-0.5,0.4-0.8,1.2-0.8c0.8,0,1.2,0.3,1.3,1h3.2
		c-0.2-2.5-2-3.4-4.6-3.4c-2.4,0-4.5,1.1-4.5,3.4c0,2.2,1.2,3,4,3.4c1.4,0.2,1.9,0.4,1.9,0.9c0,0.5-0.4,0.9-1.3,0.9
		c-1,0-1.4-0.4-1.5-1.2h-3.3C351.2,121.8,353,123,355.9,123 M339.4,122.8h3.6v-5.9c0-1.3,0.7-2,1.8-2c1,0,1.5,0.6,1.5,1.8v6.1h3.6
		V116c0-2.7-1.4-3.9-3.4-3.9c-1.7,0-2.9,0.9-3.4,2v-1.7h-3.6V122.8z M332,120.6c-0.8,0-1.2-0.4-1.2-1c0-0.9,0.6-1.1,2.1-1.1h0.9v0.6
		C333.8,120,333,120.6,332,120.6 M330.7,123c1.7,0,2.6-0.7,3.1-1.5v1.2h3.5V116c0-2.8-1.8-4-4.7-4c-2.9,0-4.8,1.2-5,3.8h3.4
		c0.1-0.7,0.4-1.2,1.4-1.2c1.1,0,1.4,0.7,1.4,1.7v0.2h-1c-3.5,0-5.6,1-5.6,3.4C327.2,122.1,328.9,123,330.7,123 M319.4,122.8h3.6v-5
		c0-1.7,1.2-2.4,3.4-2.3v-3.3c-1.6,0-2.7,0.7-3.4,2.2v-2.1h-3.6V122.8z M310.1,123c4.6,0,7.6-3,7.6-7.4v-0.2c0-4.4-3.2-7.2-7.6-7.2
		c-4.3,0-7.6,2.9-7.6,7.3v0.2C302.6,120,305.5,123,310.1,123 M310.2,119.8c-2,0-3.3-1.5-3.3-4.1v-0.2c0-2.6,1.3-4.1,3.3-4.1
		c2,0,3.3,1.5,3.3,4v0.2C313.5,118.2,312.2,119.8,310.2,119.8"/>
	<path clip-path="url(#SVGID_2_)" fill="#F37920" d="M766.9,402.6c7.3,1.6,13.1-1.9,13.1-10v-0.4c0-7.9-5.7-14-13.1-15.6
		c-7.4-1.6-13.2,2-13.2,10v0.4C753.8,395.2,759.5,401,766.9,402.6 M766.9,395.8c-2.8-0.6-4.2-3-4.2-7v-0.4c0-3.9,1.5-5.5,4.2-4.9
		c2.7,0.6,4.1,3,4.1,6.9v0.3C771,394.6,769.6,396.4,766.9,395.8 M737.4,389c-2.7-0.6-4.1-2.9-4.1-6.7v-0.4c0-3.8,1.5-5.5,4.1-5
		c2.7,0.6,4.2,2.8,4.2,6.8v0.4C741.6,387.9,740.1,389.6,737.4,389 M724.6,400.9l8.9,2v-11.8c1.2,2.7,3.7,5,7.2,5.8
		c5.4,1.2,9.9-1.9,9.9-10.6v-0.4c0-8.7-4.5-13.9-9.9-15.1c-3.6-0.8-5.9,0.6-7.2,2.7v-3.6l-8.9-2V400.9z M707.3,389.4
		c7.3,1.6,13.1-1.9,13.1-10V379c0-7.9-5.7-14-13.1-15.6c-7.4-1.6-13.2,2-13.2,10v0.4C694.2,382,699.9,387.8,707.3,389.4
		 M707.3,382.6c-2.8-0.6-4.2-3-4.2-7v-0.4c0-3.9,1.5-5.5,4.2-4.9c2.8,0.6,4.1,3,4.1,6.9v0.3C711.4,381.4,710,383.2,707.3,382.6
		 M685.2,357.3c2.7,0.6,4.8-0.9,4.8-3.6c0-2.7-2.1-5.2-4.8-5.8c-2.7-0.6-4.8,0.9-4.8,3.7C680.4,354.3,682.5,356.7,685.2,357.3
		 M678,390.9c9.1,2,11.6-1.1,11.6-6.6v-24.2l-8.9-2v24c0,1.9-0.9,2.5-2.7,2.1V390.9z"/>
	<path clip-path="url(#SVGID_2_)" fill="#F37920" d="M162,9.5c2.7-0.6,4.8-3,4.8-5.7c0-2.7-2.1-4.3-4.8-3.7
		c-2.8,0.6-4.8,3.1-4.8,5.8C157.1,8.6,159.2,10.2,162,9.5 M157.5,37.1l8.8-2V10.4l-8.8,2V37.1z M142.2,41.1
		c6.7-1.5,11.1-5.1,11.1-11.2c0-5.3-3.2-6.3-10-5.7c-2.6,0.3-3.7,0.1-3.7-1.1c0-0.9,0.7-1.9,2.3-2.2c1.6-0.4,2.4,0.3,2.7,1.7l8-1.8
		c-0.5-5.9-4.6-7.2-10.8-5.8c-5.8,1.3-10.5,5-10.5,10.7c0,5.3,2.8,6.5,9.1,5.8c3.2-0.3,4.1,0.1,4.1,1.2c0,1-0.8,1.9-2.5,2.3
		c-2,0.4-2.7-0.4-2.9-1.9l-8.1,1.8C131.3,40.6,135.3,42.6,142.2,41.1 M117.3,46.6c6.7-1.5,11.1-5.1,11.1-11.2c0-5.3-3.2-6.3-10-5.7
		c-2.6,0.3-3.7,0.1-3.7-1.1c0-0.9,0.7-1.9,2.3-2.2c1.6-0.4,2.4,0.3,2.7,1.7l8-1.8c-0.5-5.9-4.6-7.2-10.8-5.8
		c-5.8,1.3-10.5,5-10.5,10.7c0,5.3,2.8,6.5,9.2,5.8c3.2-0.3,4.1,0.1,4.1,1.2c0,1-0.8,1.9-2.5,2.3c-2,0.4-2.7-0.4-2.9-1.9l-8.1,1.8
		C106.3,46.1,110.4,48.2,117.3,46.6 M78.2,54.7l8.9-2V39.1c0-2.9,1.3-4.6,3.5-5.1c2.1-0.5,3,0.6,3,3.1v14.2l8.9-2V33.1
		c0-6.1-3.1-8.4-7.6-7.4c-4,0.9-6.5,3.5-7.8,6.4v-4l-8.9,2V54.7z M60.7,52.9c-1.6,0.4-2.5-0.2-2.5-1.4c0-1.7,1.1-2.6,4.1-3.3
		l1.9-0.4v1.3C64.1,51,62.7,52.5,60.7,52.9 M57.5,59.9c3.8-0.8,5.9-3.1,6.9-5v2.8l8.6-1.9v-16c0-6.5-4.1-8.5-11-7
		c-6.8,1.5-11.3,5.6-11.6,11.7l8.3-1.8c0.1-1.3,0.8-2.8,2.8-3.3c2.4-0.5,2.7,0.9,2.7,3v0.4l-2,0.4c-8.2,1.8-12.7,5.1-12.7,10.9
		C49.4,59.5,53.2,60.8,57.5,59.9 M30.5,65.3l8.9-2V51.9c0-3.5,2.7-5.8,7.6-6.6v-8.7c-3.5,0.7-6.1,2.9-7.6,7v-5l-8.9,2V65.3z
		 M13.1,69.7c7.3-1.6,13.1-7.7,13.1-15.8v-0.4c0-7.9-5.7-11.5-13.1-9.8C5.7,45.4,0,51.5,0,59.6V60C0,68.1,5.8,71.4,13.1,69.7
		 M13.2,62.9C10.3,63.5,9,61.7,9,57.7v-0.4c0-3.9,1.5-6.1,4.2-6.7c2.7-0.6,4.1,1.2,4.1,5.1V56C17.2,59.9,15.9,62.3,13.2,62.9"/>
	<polygon clip-path="url(#SVGID_2_)" fill="#F37920" points="171.2,24.8 189,20.9 189,14.7 171.2,18.6 	"/>
</g>
</svg>
